<svg width="64" height="64" viewBox="0 0 64 64" fill="none" xmlns="http://www.w3.org/2000/svg">
<path d="M48.0531 58.18L59.9286 58.1783C62.1779 58.1783 64.0008 56.3549 64.0008 54.1056V42.599C64.0008 41.4103 63.4812 40.2804 62.5788 39.5066L24.4173 6.79677C23.679 6.16433 22.7388 5.81641 21.7666 5.81641H9.89109C7.64178 5.81641 5.81836 7.63982 5.81836 9.88913V21.3975C5.81836 22.5862 6.33792 23.716 7.24032 24.4899L45.4012 57.1991C46.1395 57.8321 47.0803 58.18 48.0531 58.18Z" fill="#00D886" style="fill:#00D886;fill:color(display-p3 0.0000 0.8471 0.5255);fill-opacity:1;"/>
<path d="M49.4806 58.1818H59.9271C62.1764 58.1818 63.9999 56.3584 63.9999 54.1091V41.0164C63.9999 40.8239 63.9859 40.6313 63.9591 40.4404L58.6815 3.49673C58.3952 1.49062 56.6765 0 54.65 0H38.977C36.7271 0 34.9037 1.824 34.9043 4.07389L34.909 22.6124C34.909 23.0499 34.9794 23.4845 35.1178 23.8993L45.6173 55.3972C46.1718 57.0601 47.7276 58.1818 49.4806 58.1818Z" fill="url(#paint0_linear_1_27)"/>
<path d="M4.07273 64H38.041C39.6701 64 41.1427 63.0289 41.7844 61.5319L57.8525 24.0413C58.0695 23.5345 58.1818 22.9882 58.1818 22.4367V4.07273C58.1818 1.82342 56.3584 0 54.1091 0H36.1431C35.3385 0 34.5519 0.238545 33.8822 0.685382L1.81353 22.0881C0.681309 22.8439 0.001745 24.1146 0.001745 25.4755L0 59.9273C0 62.1766 1.82342 64 4.07273 64Z" fill="url(#paint1_linear_1_27)"/>
<path d="M52 12H12V52H52V12Z" fill="black" style="fill:black;fill-opacity:1;"/>
<path d="M19.764 31.6245C20.938 32.301 22.2487 32.64 23.6958 32.64C25.0857 32.64 26.3385 32.3305 27.4547 31.7107C28.5778 31.091 29.4597 30.2456 30.1008 29.1723C30.7489 28.0925 31.0729 26.8866 31.0729 25.554V24.3661H24.6679V26.6882H28.1839C28.1117 27.2487 27.9078 27.76 27.5733 28.2221C27.1775 28.7689 26.6411 29.1983 25.9641 29.5073C25.294 29.8169 24.5453 29.9719 23.7172 29.9719C22.8244 29.9719 22.0184 29.7492 21.2979 29.3024C20.5775 28.8557 20.0122 28.2441 19.602 27.4664C19.1986 26.6824 18.9973 25.7994 18.9973 24.8203C18.9973 23.8413 19.1986 22.9623 19.602 22.1846C20.0128 21.4 20.5781 20.7843 21.2979 20.3376C22.0178 19.8909 22.8244 19.6681 23.7172 19.6681C24.3225 19.6681 24.8878 19.7653 25.4132 19.9597C25.9392 20.1472 26.3963 20.4174 26.7852 20.7698C27.181 21.1153 27.4946 21.5261 27.7249 22.0012H30.8791C30.6054 21.0146 30.1262 20.1437 29.4423 19.3875C28.7653 18.6312 27.9297 18.0439 26.9362 17.6267C25.9496 17.2095 24.8693 17 23.6958 17C22.2481 17 20.9375 17.3414 19.764 18.0259C18.5899 18.7024 17.6681 19.6392 16.9987 20.8341C16.3292 22.022 15.9941 23.3506 15.9941 24.8197C15.9941 26.2889 16.3292 27.6215 16.9987 28.8164C17.6687 30.0043 18.5905 30.94 19.764 31.6245Z" fill="white" style="fill:white;fill-opacity:1;"/>
<path fill-rule="evenodd" clip-rule="evenodd" d="M36.1829 31.6245C37.3639 32.301 38.678 32.64 40.1251 32.64C41.5792 32.64 42.8939 32.301 44.0674 31.6245C45.2484 30.94 46.1736 30.0043 46.8431 28.8164C47.5126 27.6215 47.8476 26.2889 47.8476 24.8197C47.8476 23.3506 47.5126 22.022 46.8431 20.8341C46.1736 19.6392 45.2484 18.7024 44.0674 18.0259C42.8939 17.3414 41.5723 17 40.1251 17C38.678 17 37.3639 17.3414 36.1829 18.0259C35.0094 18.7024 34.0841 19.6392 33.4071 20.8341C32.7376 22.022 32.4026 23.3506 32.4026 24.8197C32.4026 26.2889 32.7376 27.6215 33.4071 28.8164C34.0836 30.0043 35.0094 30.94 36.1829 31.6245ZM42.545 29.3782C41.8321 29.825 41.029 30.0477 40.1361 30.0477C39.2433 30.0477 38.4367 29.825 37.7168 29.3782C37.004 28.9246 36.4421 28.3026 36.0318 27.5098C35.6285 26.7107 35.4272 25.8138 35.4272 24.8203C35.4272 23.8268 35.6285 22.9345 36.0318 22.1418C36.4421 21.3427 37.004 20.7201 37.7168 20.2734C38.4367 19.8197 39.2433 19.5929 40.1361 19.5929C41.029 19.5929 41.8321 19.8197 42.545 20.2734C43.2579 20.7201 43.8157 21.3427 44.219 22.1418C44.6223 22.9339 44.8237 23.8268 44.8237 24.8203C44.8237 25.8138 44.6223 26.7107 44.219 27.5098C43.8157 28.302 43.2579 28.9246 42.545 29.3782Z" fill="white" style="fill:white;fill-opacity:1;"/>
<path d="M16.9941 44H32.9941V47H16.9941V44Z" fill="white" style="fill:white;fill-opacity:1;"/>
<defs>
<linearGradient id="paint0_linear_1_27" x1="63.6351" y1="54.0451" x2="39.318" y2="1.59593" gradientUnits="userSpaceOnUse">
<stop offset="0.24" stop-color="#00D886" style="stop-color:#00D886;stop-color:color(display-p3 0.0000 0.8471 0.5255);stop-opacity:1;"/>
<stop offset="0.51" stop-color="#007DFE" style="stop-color:#007DFE;stop-color:color(display-p3 0.0000 0.4902 0.9961);stop-opacity:1;"/>
</linearGradient>
<linearGradient id="paint1_linear_1_27" x1="59.3792" y1="4.38051" x2="0.674326" y2="63.0854" gradientUnits="userSpaceOnUse">
<stop offset="0.27" stop-color="#007DFE" style="stop-color:#007DFE;stop-color:color(display-p3 0.0000 0.4902 0.9961);stop-opacity:1;"/>
<stop offset="0.7" stop-color="#D249FC" style="stop-color:#D249FC;stop-color:color(display-p3 0.8235 0.2863 0.9882);stop-opacity:1;"/>
</linearGradient>
</defs>
</svg>
