<svg width="125" height="150" viewBox="0 0 125 150" fill="none" xmlns="http://www.w3.org/2000/svg">
<g clip-path="url(#clip0_2_400)">
<path d="M121.335 48.7736C121.523 48.1132 121.335 47.4528 120.771 46.9811L66.6354 5.4717C64.0978 3.58491 60.6203 3.58491 58.1767 5.4717L4.04138 46.9811C3.47747 47.3585 3.2895 48.1132 3.47747 48.7736L7.33085 62.4528L9.77446 71.2264L10.9963 75.8491H5.8271C4.79326 75.8491 3.9474 76.7925 4.22935 77.8302L10.5263 109.151C10.7143 109.906 11.3722 110.472 12.1241 110.472H20.0188L21.2406 115.094L24.906 128.208C25 128.679 25.376 129.057 25.8459 129.245L61.7481 145.755C62.2181 145.943 62.688 145.943 63.1579 145.755L99.2481 129.151C99.5301 128.962 99.8121 128.774 99.906 128.396L103.665 115L104.887 110.377H113.064C113.91 110.377 114.568 109.811 114.662 109.057L120.677 77.7359C120.865 76.6981 120.113 75.7547 119.079 75.7547H113.91L115.132 71.1321L121.429 48.6793L121.335 48.7736Z" fill="#0D1544" stroke="#0D1544" style="fill:#0D1544;fill:color(display-p3 0.0510 0.0824 0.2667);fill-opacity:1;stroke:#0D1544;stroke:color(display-p3 0.0510 0.0824 0.2667);stroke-opacity:1;" stroke-width="7.1" stroke-linecap="round" stroke-linejoin="round"/>
<path d="M114.944 71.2264H112.5L118.609 49.6226C118.797 48.9623 118.609 48.3019 118.045 47.8302L66.6353 8.39623C64.0977 6.50944 60.6203 6.50944 58.1767 8.39623L6.76689 47.8302C6.20298 48.2076 6.01501 48.9623 6.20298 49.6226L12.312 71.2264H9.8684L3.5714 48.7736C3.38343 48.1132 3.5714 47.4528 4.13531 46.9811L58.1767 5.4717C60.7143 3.58491 64.1917 3.58491 66.6353 5.4717L120.677 46.9811C121.241 47.3585 121.429 48.1132 121.241 48.7736L114.944 71.2264Z" fill="white" style="fill:white;fill-opacity:1;"/>
<path d="M61.6541 145.849L25.7519 129.34C25.2819 129.151 25 128.774 24.812 128.302L21.1466 115.189H23.5902L26.7857 126.604C26.8797 127.075 27.2556 127.453 27.7256 127.642L61.6541 143.302C62.1241 143.491 62.594 143.491 63.0639 143.302L97.1804 127.547C97.4624 127.358 97.7444 127.17 97.8383 126.792L101.128 115.094H103.571L99.812 128.491C99.812 128.774 99.5301 129.057 99.1541 129.245L63.0639 145.849C62.594 146.038 62.1241 146.038 61.6541 145.849Z" fill="white" style="fill:white;fill-opacity:1;"/>
<path d="M39.1917 115.094L39.9436 117.642C39.9436 117.925 40.2255 118.208 40.5075 118.302L61.7481 127.83C62.124 128.019 62.594 128.019 63.0639 127.83L84.3045 118.302C84.5864 118.302 84.8684 117.925 84.8684 117.642L85.6203 115.094H39.1917Z" fill="white" style="fill:white;fill-opacity:1;"/>
<path d="M60.7143 26.6981L23.0263 54.434L27.7256 71.2264H97.1804L101.88 54.434L64.1917 26.6981C63.1579 25.9434 61.8421 25.9434 60.8083 26.6981C60.8083 26.6981 60.8083 26.6981 60.7143 26.6981Z" fill="white" style="fill:white;fill-opacity:1;"/>
<path d="M79.8872 98.4906V98.9623C79.8872 99.8113 80.1692 100 80.5451 100H82.5188C83.0827 100 83.3646 99.6227 83.3646 98.5849V97.2642H80.5451C80.1692 97.2642 79.8872 97.7359 79.8872 98.4906Z" fill="white" style="fill:white;fill-opacity:1;"/>
<path d="M93.327 92.0755H92.0113C91.3534 92.0755 90.9774 92.4528 90.9774 93.3962V98.5849C90.9774 99.5283 91.3534 100 92.0113 100H93.327C93.9849 100 94.3609 99.5283 94.3609 98.4906V93.6792C94.3609 92.5472 93.9849 92.0755 93.327 92.0755Z" fill="white" style="fill:white;fill-opacity:1;"/>
<path d="M20.6767 96.4151H24.1541L22.3684 88.7736L20.5827 96.4151H20.6767Z" fill="white" style="fill:white;fill-opacity:1;"/>
<path d="M43.1391 93.4906C43.1391 92.5472 42.7631 92.0755 42.1052 92.0755H40.7895C40.1316 92.0755 39.7556 92.5472 39.7556 93.5849V98.4906C39.7556 99.6226 40.1316 100 40.7895 100H42.1052C42.7631 100 43.1391 99.6226 43.1391 98.6792V93.4906Z" fill="white" style="fill:white;fill-opacity:1;"/>
<path d="M53.4774 97.2642H50.6579C50.282 97.2642 50 97.7359 50 98.4906V98.9623C50 99.8113 50.282 100 50.6579 100H52.6316C53.1955 100 53.4774 99.6227 53.4774 98.5849V97.2642Z" fill="white" style="fill:white;fill-opacity:1;"/>
<path d="M109.68 71.2264H101.41L106.015 53.6792C106.203 53.0189 106.015 52.3585 105.451 51.8868L66.6354 22.2642C64.0978 20.3774 60.7143 20.3774 58.1767 22.2642L19.3609 51.8868C18.797 52.2642 18.609 53.0189 18.797 53.6792L23.4023 71.2264H15.1316L9.68047 50.6604C9.4925 50 9.68047 49.3396 10.2444 48.8679L58.1767 12.2642C60.7143 10.3774 64.0978 10.3774 66.6354 12.2642L114.474 48.8679C115.038 49.2453 115.226 50 115.038 50.6604L109.586 71.2264H109.68Z" fill="#FF5337" style="fill:#FF5337;fill:color(display-p3 1.0000 0.3255 0.2157);fill-opacity:1;"/>
<path d="M61.6541 140.755L29.8872 125.849C29.4173 125.66 29.1353 125.283 28.9473 124.811L26.0338 115.094H34.2105L35.4323 119.057C35.4323 119.528 35.9022 119.906 36.3722 120.094L61.5601 131.887C62.0301 132.075 62.5 132.075 62.9699 131.887L88.4398 120C88.7218 119.811 89.0037 119.623 89.0977 119.245L90.3195 115H98.4962L95.5827 124.906C95.5827 125.189 95.3007 125.472 94.9248 125.66L62.9699 140.66C62.5 140.849 62.0301 140.849 61.5601 140.66L61.6541 140.755Z" fill="#FF5337" style="fill:#FF5337;fill:color(display-p3 1.0000 0.3255 0.2157);fill-opacity:1;"/>
<path d="M33.2707 64.8113H56.391C56.9549 64.8113 57.8008 64.5283 58.1767 64.1509L64.8496 57.9245C65.2256 57.5472 65.6015 56.7924 65.6015 56.2264V34.8113C65.6015 34.2453 65.2256 34.1509 64.8496 34.5283L32.8948 64.1509C32.5188 64.5283 32.6128 64.8113 33.1767 64.8113H33.2707Z" fill="#FF5337" style="fill:#FF5337;fill:color(display-p3 1.0000 0.3255 0.2157);fill-opacity:1;"/>
<path d="M77.8196 64.8113H87.782C88.3459 64.8113 88.5339 64.5283 88.0639 64.0566L69.173 46.5094C68.703 46.1321 68.4211 46.2264 68.4211 46.7925V56.0377C68.4211 56.6038 68.797 57.3585 69.173 57.7359L75.9399 64.0566C76.3158 64.434 77.1617 64.8113 77.8196 64.8113Z" fill="#0D1544" style="fill:#0D1544;fill:color(display-p3 0.0510 0.0824 0.2667);fill-opacity:1;"/>
<path d="M118.985 75.8491H5.82705C4.79321 75.8491 3.94735 76.7925 4.2293 77.8302L10.5263 109.151C10.7143 109.906 11.3722 110.472 12.124 110.472H112.97C113.816 110.472 114.474 109.906 114.662 109.151L120.677 77.8302C120.865 76.7925 120.113 75.8491 118.985 75.8491Z" fill="white" style="fill:white;fill-opacity:1;"/>
<path d="M76.8797 100.094L77.0677 102.925H75.6579C73.7782 102.925 72.8384 101.887 72.8384 99.8113V84.0566L75.188 83.4906H75.6579V99.0566C75.6579 99.9057 75.9399 100.283 76.5038 100.283H76.8797V100.094Z" fill="#FF5337" style="fill:#FF5337;fill:color(display-p3 1.0000 0.3255 0.2157);fill-opacity:1;"/>
<path d="M84.1166 101.415C83.5527 102.547 83.0827 102.736 81.7669 102.736H80.3572C78.5715 102.736 77.7256 101.698 77.7256 99.5283V97.6415C77.7256 95.6604 78.5715 94.6227 80.3572 94.6227H83.8346V93.3019C83.8346 92.4528 83.5527 92.0755 82.9887 92.0755H81.579C81.0151 92.0755 80.7331 92.4528 80.7331 93.3019V93.5849H78.1015V92.4528C78.1015 90.3774 78.9474 89.3396 80.7331 89.3396H83.7406C85.6203 89.3396 86.5602 90.3774 86.5602 92.4528V102.736H84.2105L84.0226 101.415C84.0226 101.415 84.0226 101.415 84.1166 101.415ZM82.9887 99.9057C83.5527 99.9057 83.9286 99.5283 83.9286 98.4906V97.1698H81.1091C80.7331 97.1698 80.4512 97.6415 80.4512 98.3962V98.8679C80.4512 99.717 80.7331 99.9057 81.1091 99.9057H83.0827H82.9887Z" fill="#FF5337" style="fill:#FF5337;fill:color(display-p3 1.0000 0.3255 0.2157);fill-opacity:1;"/>
<path d="M91.4474 101.604V102.736H88.6278V83.9623L90.9774 83.3962H91.4474V90.3774C92.0113 89.6226 92.7631 89.434 93.703 89.434H94.8308C96.7105 89.434 97.6504 90.566 97.6504 92.7358V99.3396C97.6504 101.698 96.7105 102.83 94.6428 102.83H93.703C92.4812 102.83 91.8233 102.547 91.4474 101.698V101.604ZM91.4474 98.5849C91.4474 99.6226 91.8233 100 92.4812 100H93.891C94.6428 100 94.9248 99.5283 94.9248 98.4906V93.6792C94.9248 92.5472 94.5489 92.0755 93.891 92.0755H92.4812C91.8233 92.0755 91.4474 92.4528 91.4474 93.3962V98.6792V98.5849Z" fill="#FF5337" style="fill:#FF5337;fill:color(display-p3 1.0000 0.3255 0.2157);fill-opacity:1;"/>
<path d="M102.632 91.8868C102.256 91.8868 101.974 92.1698 101.974 92.9245V93.2076C101.974 93.8679 102.256 94.0566 102.82 94.2453L105.169 95C107.237 95.566 107.801 96.0377 107.801 98.2076V99.717C107.801 101.981 106.767 102.642 104.511 102.642H102.444C99.812 102.642 99.1541 101.792 99.1541 99.2453V98.4906H101.786V98.9623C101.786 99.717 101.974 100 102.444 100H104.605C104.981 100 105.263 99.717 105.263 98.9623V98.6792C105.263 98.0189 104.981 97.8302 104.417 97.6415L102.068 96.8868C99.624 96.1321 99.4361 95.4717 99.4361 93.3019V92.2642C99.4361 90 100 89.0566 102.726 89.0566H104.417C107.143 89.0566 107.707 89.9057 107.707 92.5472V93.3962H105.075V92.7359C105.075 91.9811 104.887 91.6981 104.417 91.6981H102.632V91.8868Z" fill="#FF5337" style="fill:#FF5337;fill:color(display-p3 1.0000 0.3255 0.2157);fill-opacity:1;"/>
<path d="M43.2331 83.9623V90.4717C42.7632 89.6226 42.2932 89.434 41.1654 89.434H40.0376C37.9699 89.434 37.0301 90.6604 37.0301 93.1132V99.5283C37.0301 101.698 37.9699 102.83 39.8496 102.83H40.9775C42.4812 102.83 43.1391 102.358 43.4211 101.321L43.703 102.83H46.0526V83.3962H45.5827L43.2331 83.9623ZM43.2331 98.6792C43.2331 99.6226 42.7632 100 42.1993 100H40.8835C40.1316 100 39.8496 99.5283 39.8496 98.4906V93.5849C39.8496 92.4528 40.2256 92.0755 40.8835 92.0755H42.2932C42.9511 92.0755 43.3271 92.5472 43.3271 93.4906V98.6792H43.2331Z" fill="#0D1544" style="fill:#0D1544;fill:color(display-p3 0.0510 0.0824 0.2667);fill-opacity:1;"/>
<path d="M20.8646 84.1509L15.9774 102.736H19.1729L19.9248 99.434H24.906L25.6579 102.736H28.7594L23.8722 84.1509H20.8646ZM20.5827 96.4151L22.3684 88.7736L24.1541 96.4151H20.5827Z" fill="#0D1544" style="fill:#0D1544;fill:color(display-p3 0.0510 0.0824 0.2667);fill-opacity:1;"/>
<path d="M35.6203 89.0566L33.4587 89.8113C32.8948 90 32.5188 90.4717 32.2369 91.0377V89.434H31.7669L29.6053 90V102.642H32.4248V94.2453C32.4248 93.2075 32.7068 92.8302 33.4587 92.5472L35.9023 91.6981L35.7143 88.9623H35.5263H35.6203V89.0566Z" fill="#0D1544" style="fill:#0D1544;fill:color(display-p3 0.0510 0.0824 0.2667);fill-opacity:1;"/>
<path d="M53.6654 89.3396H50.6579C48.8722 89.3396 48.0263 90.3774 48.0263 92.4528V93.5849H50.6579V93.3019C50.6579 92.4528 50.9399 92.0755 51.5038 92.0755H52.9135C53.4775 92.0755 53.7594 92.4528 53.7594 93.3019V94.6227H50.282C48.4963 94.6227 47.6504 95.6604 47.6504 97.6415V99.5283C47.6504 101.698 48.4963 102.736 50.282 102.736H51.6917C53.0075 102.736 53.4775 102.453 54.0414 101.415L54.2293 102.736H56.579V92.4528C56.579 90.3774 55.6391 89.3396 53.7594 89.3396C53.7594 89.3396 53.7594 89.3396 53.6654 89.3396ZM53.7594 98.4906C53.7594 99.434 53.4775 99.9057 52.8196 99.9057H50.8459C50.4699 99.9057 50.188 99.717 50.188 98.8679V98.3962C50.188 97.6415 50.4699 97.1698 50.8459 97.1698H53.6654V98.4906H53.7594Z" fill="#0D1544" style="fill:#0D1544;fill:color(display-p3 0.0510 0.0824 0.2667);fill-opacity:1;"/>
<path d="M64.4737 89.3396H63.3459C62.1241 89.3396 61.4662 89.6226 60.9963 90.566V89.5283H60.5263L58.3647 90.0943V102.736H61.1842V93.2076C61.1842 92.4528 61.6542 91.8868 62.2181 91.8868H63.3459C64.0978 91.8868 64.3797 92.3585 64.3797 93.3962V102.642H67.1993V92.5472C67.1993 90.3774 66.2594 89.2453 64.3797 89.2453L64.4737 89.3396Z" fill="#0D1544" style="fill:#0D1544;fill:color(display-p3 0.0510 0.0824 0.2667);fill-opacity:1;"/>
</g>
<defs>
<clipPath id="clip0_2_400">
<rect width="125" height="150" fill="white" style="fill:white;fill-opacity:1;"/>
</clipPath>
</defs>
</svg>
