<svg width="132" height="150" viewBox="0 0 132 150" fill="none" xmlns="http://www.w3.org/2000/svg">
<path d="M35.3925 61.0225C34.2493 60.1728 33.1031 59.748 31.9599 59.748H26.8213V90.3545H31.9629C33.1061 90.3545 34.2522 89.9297 35.3954 89.0801C36.5387 88.2305 37.1103 86.9561 37.1103 85.2539V64.8486C37.1073 63.1494 36.5328 61.8721 35.3925 61.0225ZM119.065 9.375H12.9348C5.80446 9.375 0.0176786 15.1143 0 22.207V127.793C0.0176786 134.886 5.80446 140.625 12.9348 140.625H119.065C126.198 140.625 131.982 134.886 132 127.793V22.207C131.982 15.1143 126.196 9.375 119.065 9.375ZM45.4339 85.3096C45.4339 90.8203 42.0131 99.1699 31.185 99.1523H17.5136V50.6777H31.4738C41.9159 50.6777 45.428 59.0156 45.431 64.5293L45.4339 85.3096ZM75.0986 59.335H59.4V70.5908H68.9965V79.2539H59.4V90.5068H75.1015V99.1699H56.7806C53.4924 99.2549 50.7581 96.6709 50.6756 93.4014V56.748C50.5961 53.4814 53.1978 50.7686 56.483 50.6865H75.1015L75.0986 59.335ZM105.635 93.1113C101.746 102.12 94.7778 100.327 91.6575 93.1113L80.3049 50.6895H89.9014L98.6553 84.0059L107.368 50.6895H116.967L105.635 93.1113Z" fill="black" style="fill:black;fill-opacity:1;"/>
</svg>
