<svg width="657" height="150" viewBox="0 0 657 150" fill="none" xmlns="http://www.w3.org/2000/svg">
<g clip-path="url(#clip0_2_427)">
<mask id="mask0_2_427" style="mask-type:luminance" maskUnits="userSpaceOnUse" x="0" y="0" width="657" height="150">
<path d="M657 0H0V150H657V0Z" fill="white" style="fill:white;fill-opacity:1;"/>
</mask>
<g mask="url(#mask0_2_427)">
<path d="M65.7622 109.555C45.8109 107.137 31.7543 92.7816 31.7543 74.1951C31.7543 66.6396 34.475 58.4796 39.0094 53.0397C37.0444 48.0531 37.3467 37.4754 39.6139 33.0932C45.6598 32.3376 53.8217 35.5108 58.6584 39.8931C64.402 38.0798 70.4478 37.1732 77.854 37.1732C85.2601 37.1732 91.3059 38.0798 96.7472 39.742C101.433 35.5108 109.746 32.3376 115.792 33.0932C117.908 37.1732 118.21 47.7508 116.245 52.8886C121.082 58.6307 123.651 66.3374 123.651 74.1951C123.651 92.7816 109.595 106.835 89.3411 109.404C94.4801 112.728 97.9565 119.982 97.9565 128.293V144.008C97.9565 148.541 101.735 151.11 106.269 149.297C133.627 138.87 155.09 111.519 155.09 77.6706C155.09 34.9064 120.326 3.76798e-07 77.5516 0C34.7773 -3.76798e-07 0.315796 34.9064 0.315796 77.6706C0.315796 111.217 21.6275 139.021 50.3453 149.448C54.4263 150.959 58.3561 148.239 58.3561 144.159V132.07C56.24 132.977 53.5194 133.581 51.101 133.581C41.1254 133.581 35.2307 128.142 30.9986 118.017C29.336 113.937 27.5221 111.519 24.0457 111.066C22.232 110.915 21.6275 110.159 21.6275 109.253C21.6275 107.439 24.6505 106.079 27.6733 106.079C32.0566 106.079 35.8352 108.799 39.7651 114.39C42.7879 118.773 45.9621 120.737 49.7407 120.737C53.5194 120.737 55.9377 119.377 59.4141 115.902C61.9835 113.333 63.9485 111.066 65.7622 109.555Z" fill="black" style="fill:black;fill-opacity:1;"/>
<mask id="mask1_2_427" style="mask-type:luminance" maskUnits="userSpaceOnUse" x="185" y="14" width="471" height="121">
<path d="M655.82 14.9883H185.073V134.895H655.82V14.9883Z" fill="white" style="fill:white;fill-opacity:1;"/>
</mask>
<g mask="url(#mask1_2_427)">
<path d="M298.393 131.06V52.5516H320.469V131.06H298.393ZM363.27 131.06C348.6 131.06 342.87 124.773 342.87 111.503V70.9912H328.898V52.5516H342.87V36.9058L364.948 31.7372V52.5516H381.295V70.9912H364.948V106.613C364.948 110.944 366.905 112.62 371.235 112.62H381.295V131.06H363.27ZM517.182 132.457C499.996 132.457 490.634 122.958 490.634 105.635V52.5516H512.852V99.7683C512.852 109.407 517.182 114.716 525.426 114.716C534.928 114.716 542.194 105.915 542.194 93.9011V52.5516H564.41V131.06H542.194V117.789C538.002 126.31 527.942 132.457 517.182 132.457ZM623.223 132.457C612.514 132.457 602.733 126.31 598.071 117.509V131.06H575.995V21.5395H598.211V66.9401C602.733 57.4408 612.934 50.7355 623.223 50.7355C644.651 50.7355 655.97 65.5432 655.22 91.6659C655.97 117.509 644.233 132.457 623.223 132.457ZM615.397 113.877C626.906 113.877 633.193 105.356 632.445 91.6659C633.193 77.8363 626.906 69.3148 615.397 69.3148C606.226 69.3148 598.961 78.2553 598.211 90.5484V91.8057C598.961 104.518 606.226 113.877 615.397 113.877ZM456.005 21.5395V65.9623H414.366V21.5395H390.613V131.06H414.366V87.1958H456.005V131.06H479.76V21.5395H456.005ZM237.891 133.155C205.474 133.155 185.073 110.944 185.073 76.1599C185.073 41.376 205.894 19.4441 238.868 19.4441C265.696 19.4441 281.905 30.8989 287.074 50.1767L263.042 55.9042C260.107 45.4271 251.724 39.6996 238.868 39.6996C219.725 39.6996 209.386 52.2722 209.386 76.1599C209.386 100.048 219.446 112.899 238.309 112.899C255.636 112.899 265.976 102.283 265.976 84.2621V80.0714L272.124 88.5927H236.354V68.4767H290.009V81.1888C290.009 114.576 270.588 133.155 237.891 133.155ZM309.431 45.1478C316.837 45.1478 322.566 39.4203 322.566 32.0165C322.566 24.6128 316.837 18.8853 309.431 18.8853C302.026 18.8853 296.298 24.6128 296.298 32.0165C296.298 39.4203 302.026 45.1478 309.431 45.1478Z" fill="black" style="fill:black;fill-opacity:1;"/>
</g>
</g>
</g>
<defs>
<clipPath id="clip0_2_427">
<rect width="657" height="150" fill="white" style="fill:white;fill-opacity:1;"/>
</clipPath>
</defs>
</svg>
