<svg width="398" height="150" viewBox="0 0 398 150" fill="none" xmlns="http://www.w3.org/2000/svg">
<path fill-rule="evenodd" clip-rule="evenodd" d="M31.1478 46.3461C30.3787 46.3461 30.1865 45.9615 30.571 45.3846L34.6087 40.1923C34.9932 39.6154 35.9546 39.2308 36.7237 39.2308H105.364C106.133 39.2308 106.326 39.8077 105.941 40.3846L102.672 45.3846C102.288 45.9615 101.327 46.5385 100.75 46.5385L31.1478 46.3461Z" fill="#007D9C" style="fill:#007D9C;fill:color(display-p3 0.0000 0.4902 0.6118);fill-opacity:1;"/>
<path fill-rule="evenodd" clip-rule="evenodd" d="M2.11497 64.0384C1.34589 64.0384 1.15362 63.6538 1.53816 63.0769L5.57584 57.8846C5.96038 57.3077 6.92173 56.9231 7.69081 56.9231H95.3662C96.1353 56.9231 96.5198 57.5 96.3275 58.0769L94.7894 62.6923C94.5971 63.4615 93.828 63.8461 93.0589 63.8461L2.11497 64.0384Z" fill="#007D9C" style="fill:#007D9C;fill:color(display-p3 0.0000 0.4902 0.6118);fill-opacity:1;"/>
<path fill-rule="evenodd" clip-rule="evenodd" d="M48.6444 81.7308C47.8754 81.7308 47.6831 81.1539 48.0676 80.5769L50.7594 75.7692C51.144 75.1923 51.913 74.6154 52.6821 74.6154H91.1362C91.9053 74.6154 92.2899 75.1923 92.2899 75.9615L91.9053 80.5769C91.9053 81.3462 91.1362 81.9231 90.5594 81.9231L48.6444 81.7308Z" fill="#007D9C" style="fill:#007D9C;fill:color(display-p3 0.0000 0.4902 0.6118);fill-opacity:1;"/>
<path fill-rule="evenodd" clip-rule="evenodd" d="M248.221 42.8846C236.108 45.9615 227.841 48.2692 215.92 51.3462C213.036 52.1154 212.843 52.3077 210.344 49.4231C207.46 46.1538 205.345 44.0385 201.307 42.1154C189.194 36.1538 177.466 37.8846 166.506 45C153.432 53.4615 146.702 65.9615 146.895 81.5385C147.087 96.9231 157.662 109.615 172.851 111.731C185.926 113.462 196.885 108.846 205.537 99.0385C207.268 96.9231 208.806 94.6154 210.729 91.9231C203.807 91.9231 195.155 91.9231 173.62 91.9231C169.583 91.9231 168.621 89.4231 169.967 86.1538C172.467 80.1923 177.081 70.1923 179.773 65.1923C180.35 64.0385 181.696 62.1154 184.58 62.1154H254.566C254.182 67.3077 254.182 72.5 253.413 77.6923C251.298 91.5385 246.106 104.231 237.646 115.385C223.803 133.654 205.729 145 182.849 148.077C164.007 150.577 146.51 146.923 131.129 135.385C116.9 124.615 108.825 110.385 106.71 92.6923C104.211 71.7308 110.363 52.8846 123.053 36.3461C136.704 18.4615 154.778 7.11538 176.889 3.07692C194.962 -0.192315 212.267 1.92307 227.841 12.5C238.031 19.2308 245.337 28.4615 250.144 39.6154C251.298 41.3461 250.529 42.3077 248.221 42.8846Z" fill="#007D9C" style="fill:#007D9C;fill:color(display-p3 0.0000 0.4902 0.6118);fill-opacity:1;"/>
<path d="M311.863 149.231C294.366 148.846 278.408 143.846 264.949 132.308C253.605 122.5 246.491 110 244.184 95.1923C240.723 73.4615 246.683 54.2308 259.757 37.1154C273.793 18.6538 290.713 9.03845 313.593 4.99999C333.205 1.53845 351.663 3.46153 368.39 14.8077C383.58 25.1923 393.001 39.2308 395.5 57.6923C398.769 83.6538 391.271 104.808 373.389 122.885C360.7 135.769 345.126 143.846 327.244 147.5C322.053 148.462 316.862 148.654 311.863 149.231ZM357.623 71.5385C357.431 69.0385 357.431 67.1154 357.046 65.1923C353.586 46.1538 336.089 35.3846 317.823 39.6154C299.942 43.6538 288.406 55 284.176 73.0769C280.715 88.0769 288.021 103.269 301.865 109.423C312.44 114.038 323.014 113.462 333.205 108.269C348.394 100.385 356.662 88.0769 357.623 71.5385Z" fill="#007D9C" style="fill:#007D9C;fill:color(display-p3 0.0000 0.4902 0.6118);fill-opacity:1;"/>
</svg>
