<svg width="150" height="150" viewBox="0 0 150 150" fill="none" xmlns="http://www.w3.org/2000/svg">
<g clip-path="url(#clip0_2_294)">
<path d="M112.624 136.359L140.458 136.355C145.729 136.355 150.002 132.082 150.002 126.81V99.8414C150.002 97.0554 148.784 94.4072 146.669 92.5936L57.228 15.9299C55.4977 14.4477 53.2941 13.6322 51.0155 13.6322H23.1822C17.9104 13.6322 13.6368 17.9058 13.6368 23.1777V50.1504C13.6368 52.9364 14.8545 55.5844 16.9695 57.3982L106.409 134.06C108.139 135.544 110.344 136.359 112.624 136.359Z" fill="#00D886" style="fill:#00D886;fill:color(display-p3 0.0000 0.8471 0.5255);fill-opacity:1;"/>
<path d="M115.97 136.364H140.454C145.726 136.364 150 132.09 150 126.818V96.1322C150 95.681 149.967 95.2296 149.904 94.7822L137.535 8.19546C136.864 3.49364 132.836 0 128.086 0H91.3524C86.0792 0 81.8056 4.275 81.807 9.54818L81.818 52.9978C81.818 54.0232 81.983 55.0418 82.3074 56.014L106.916 129.837C108.215 133.735 111.862 136.364 115.97 136.364Z" fill="url(#paint0_linear_2_294)"/>
<path d="M9.54546 150H89.1586C92.9768 150 96.4282 147.724 97.9322 144.215L135.592 56.3468C136.1 55.159 136.364 53.8786 136.364 52.586V9.54546C136.364 4.27364 132.09 0 126.818 0H84.7104C82.8246 0 80.981 0.55909 79.4114 1.60636L4.25046 51.769C1.59682 53.5404 0.00408984 56.5186 0.00408984 59.7082L0 140.455C0 145.726 4.27364 150 9.54546 150Z" fill="url(#paint1_linear_2_294)"/>
<path d="M121.875 28.125H28.125V121.875H121.875V28.125Z" fill="black" style="fill:black;fill-opacity:1;"/>
<path d="M46.3218 74.1199C49.0734 75.7055 52.1454 76.5 55.537 76.5C58.7946 76.5 61.7308 75.7746 64.3469 74.322C66.9792 72.8695 69.0461 70.8881 70.5487 68.3726C72.0677 65.8418 72.8271 63.0155 72.8271 59.8922V57.108H57.8154V62.5505H66.056C65.8868 63.8641 65.4089 65.0625 64.6249 66.1455C63.6972 67.4271 62.4401 68.4335 60.8533 69.1577C59.2828 69.8834 57.528 70.2466 55.5872 70.2466C53.4947 70.2466 51.6056 69.7247 49.9169 68.6775C48.2285 67.6305 46.9036 66.1971 45.9422 64.3744C44.9967 62.5369 44.5249 60.4673 44.5249 58.1726C44.5249 55.878 44.9967 53.8179 45.9422 51.9952C46.905 50.1563 48.2299 48.7132 49.9169 47.6663C51.6042 46.6193 53.4947 46.0971 55.5872 46.0971C57.0058 46.0971 58.3308 46.3249 59.5622 46.7805C60.795 47.22 61.8663 47.8533 62.7778 48.6792C63.7054 49.489 64.4404 50.4518 64.9802 51.5653H72.3729C71.7314 49.253 70.6083 47.2118 69.0054 45.4395C67.4187 43.6669 65.4602 42.2904 63.1317 41.3126C60.8193 40.3348 58.2874 39.8438 55.537 39.8438C52.144 39.8438 49.0722 40.6439 46.3218 42.2482C43.5701 43.8337 41.4096 46.0294 39.8407 48.8299C38.2715 51.6141 37.4861 54.728 37.4861 58.1712C37.4861 61.6146 38.2715 64.7379 39.8407 67.5384C41.411 70.3226 43.5715 72.5156 46.3218 74.1199Z" fill="white" style="fill:white;fill-opacity:1;"/>
<path fill-rule="evenodd" clip-rule="evenodd" d="M84.8037 74.1199C87.5717 75.7055 90.6516 76.5 94.0432 76.5C97.4513 76.5 100.533 75.7055 103.283 74.1199C106.051 72.5156 108.219 70.3226 109.789 67.5384C111.358 64.7379 112.143 61.6146 112.143 58.1712C112.143 54.728 111.358 51.6141 109.789 48.8299C108.219 46.0294 106.051 43.8337 103.283 42.2482C100.533 40.6439 97.4351 39.8438 94.0432 39.8438C90.6516 39.8438 87.5717 40.6439 84.8037 42.2482C82.0533 43.8337 79.8846 46.0294 78.2979 48.8299C76.7288 51.6141 75.9436 54.728 75.9436 58.1712C75.9436 61.6146 76.7288 64.7379 78.2979 67.5384C79.8835 70.3226 82.0533 72.5156 84.8037 74.1199ZM99.7149 68.8552C98.044 69.9023 96.1617 70.4243 94.069 70.4243C91.9765 70.4243 90.086 69.9023 88.3988 68.8552C86.7281 67.792 85.4112 66.3342 84.4495 64.4761C83.5043 62.6032 83.0325 60.5011 83.0325 58.1726C83.0325 55.8441 83.5043 53.7527 84.4495 51.8948C85.4112 50.022 86.7281 48.5627 88.3988 47.5158C90.086 46.4524 91.9765 45.9209 94.069 45.9209C96.1617 45.9209 98.044 46.4524 99.7149 47.5158C101.386 48.5627 102.693 50.022 103.638 51.8948C104.584 53.7513 105.056 55.8441 105.056 58.1726C105.056 60.5011 104.584 62.6032 103.638 64.4761C102.693 66.3328 101.386 67.792 99.7149 68.8552Z" fill="white" style="fill:white;fill-opacity:1;"/>
<path d="M39.8299 103.125H77.3299V110.156H39.8299V103.125Z" fill="white" style="fill:white;fill-opacity:1;"/>
</g>
<defs>
<linearGradient id="paint0_linear_2_294" x1="149.145" y1="126.668" x2="92.1516" y2="3.74046" gradientUnits="userSpaceOnUse">
<stop offset="0.24" stop-color="#00D886" style="stop-color:#00D886;stop-color:color(display-p3 0.0000 0.8471 0.5255);stop-opacity:1;"/>
<stop offset="0.51" stop-color="#007DFE" style="stop-color:#007DFE;stop-color:color(display-p3 0.0000 0.4902 0.9961);stop-opacity:1;"/>
</linearGradient>
<linearGradient id="paint1_linear_2_294" x1="139.17" y1="10.2668" x2="1.58046" y2="147.856" gradientUnits="userSpaceOnUse">
<stop offset="0.27" stop-color="#007DFE" style="stop-color:#007DFE;stop-color:color(display-p3 0.0000 0.4902 0.9961);stop-opacity:1;"/>
<stop offset="0.7" stop-color="#D249FC" style="stop-color:#D249FC;stop-color:color(display-p3 0.8235 0.2863 0.9882);stop-opacity:1;"/>
</linearGradient>
<clipPath id="clip0_2_294">
<rect width="150" height="150" fill="white" style="fill:white;fill-opacity:1;"/>
</clipPath>
</defs>
</svg>
