<svg width="803" height="150" viewBox="0 0 803 150" fill="none" xmlns="http://www.w3.org/2000/svg">
<g clip-path="url(#clip0_2_302)">
<path d="M0 0H803V150H0V0Z" fill="#FF6600" style="fill:#FF6600;fill:color(display-p3 1.0000 0.4000 0.0000);fill-opacity:1;"/>
<path d="M12.8467 12.8538H132.77V17.1575H12.8467V12.8538Z" fill="white" style="fill:white;fill-opacity:1;"/>
<path d="M132.77 12.8538H137.072V132.842H132.77V12.8538Z" fill="white" style="fill:white;fill-opacity:1;"/>
<path d="M17.0892 132.842H137.012V137.145H17.0892V132.842Z" fill="white" style="fill:white;fill-opacity:1;"/>
<path d="M12.8467 17.1584H17.1489V137.146H12.8467V17.1584Z" fill="white" style="fill:white;fill-opacity:1;"/>
<mask id="mask0_2_302" style="mask-type:luminance" maskUnits="userSpaceOnUse" x="17" y="17" width="116" height="116">
<path d="M17.0891 17.1583H132.71V132.842H17.0891V17.1583Z" fill="white" style="fill:white;fill-opacity:1;"/>
</mask>
<g mask="url(#mask0_2_302)">
<path d="M17.0891 17.1583H132.71V132.842H17.0891V17.1583Z" fill="#FF6600" style="fill:#FF6600;fill:color(display-p3 1.0000 0.4000 0.0000);fill-opacity:1;"/>
</g>
<path d="M59.6926 42.3874L73.7344 71.5622L87.7165 42.3874H99.7267L78.6341 82.0846V107.612H68.775V82.0846L47.6824 42.3874H59.6926Z" fill="white" style="fill:white;fill-opacity:1;"/>
<path d="M177.054 42.586H193.068V66.2607H216.73V42.586H232.982V105.001H216.73V78.4568H193.068V105.001H177.054V42.586Z" fill="black" style="fill:black;fill-opacity:1;"/>
<path d="M269.06 83.957C265.834 83.957 263.444 84.5548 261.89 85.631C260.277 86.5875 259.5 88.1419 259.5 90.1746C259.5 92.0877 260.098 93.6421 261.412 94.7183C262.667 95.6748 264.519 96.1531 266.909 96.1531C269.598 96.1531 271.929 95.1965 273.841 93.2834C275.753 91.2507 276.709 88.68 276.709 85.631V83.957H269.06ZM291.766 78.2177V105.001H276.709V98.0662C274.797 100.936 272.526 103.028 270.017 104.284C267.447 105.539 264.4 106.197 260.934 106.197C255.975 106.197 251.971 104.882 248.984 102.132C245.936 99.2619 244.443 95.5552 244.443 90.892C244.443 85.5114 246.355 81.5058 250.179 78.9351C254.003 76.4241 259.859 75.1089 267.865 75.1089H276.709V73.9132C276.709 71.5218 275.753 69.788 273.841 68.6521C272.048 67.576 269.18 66.9781 265.236 66.9781C262.01 66.9781 259.022 67.3368 256.154 67.9347C253.405 68.5923 250.956 69.5489 248.745 70.8044V59.3257C251.912 58.7278 255.078 58.13 258.305 57.6517C261.472 57.1734 264.639 56.9343 267.865 56.9343C276.29 56.9343 282.325 58.6083 286.03 61.9562C289.854 65.3042 291.766 70.7446 291.766 78.2177Z" fill="black" style="fill:black;fill-opacity:1;"/>
<path d="M343.596 59.5648V71.7609C341.683 70.5054 339.652 69.5489 337.62 68.8912C335.529 68.114 333.378 67.6955 331.167 67.6955C326.984 67.6955 323.758 69.0108 321.368 71.5218C319.097 73.9132 318.022 77.2611 318.022 81.5656C318.022 86.0495 319.097 89.4572 321.368 91.8486C323.758 94.24 326.984 95.4357 331.167 95.4357C333.557 95.4357 335.768 95.1368 337.859 94.4791C339.891 93.8813 341.803 92.8051 343.596 91.3703V103.566C341.325 104.523 338.935 105.121 336.425 105.48C334.035 105.958 331.645 106.197 329.255 106.197C320.77 106.197 314.197 104.045 309.417 99.7402C304.637 95.4357 302.247 89.3974 302.247 81.5656C302.247 73.9132 304.637 67.9347 309.417 63.6302C314.197 59.2061 320.77 56.9343 329.255 56.9343C331.765 56.9343 334.155 57.1734 336.425 57.6517C338.815 58.13 341.205 58.7876 343.596 59.5648Z" fill="black" style="fill:black;fill-opacity:1;"/>
<path d="M356.61 39.9554H371.667V75.348L388.876 58.13H406.085L383.379 79.6525L407.997 105.001H389.832L371.667 85.3918V105.001H356.61V39.9554Z" fill="black" style="fill:black;fill-opacity:1;"/>
<path d="M457.957 81.5656V85.631H423.062C423.361 89.1583 424.616 91.7888 426.886 93.5226C429.097 95.3161 432.144 96.1531 435.968 96.1531C439.135 96.1531 442.302 95.7944 445.529 94.9574C448.875 94.0009 452.281 92.566 455.806 90.6529V102.132C452.281 103.566 448.755 104.643 445.29 105.24C441.764 105.838 438.179 106.197 434.534 106.197C426.05 106.197 419.477 104.045 414.697 99.7402C410.036 95.4357 407.765 89.3974 407.765 81.5656C407.765 73.9132 410.036 67.9347 414.697 63.6302C419.298 59.2061 425.691 56.9343 433.817 56.9343C441.107 56.9343 446.963 59.2061 451.265 63.6302C455.687 68.1141 457.957 74.0926 457.957 81.5656ZM442.661 76.5437C442.661 73.6741 441.764 71.4022 440.032 69.6087C438.418 67.8749 436.327 66.9782 433.817 66.9782C430.77 66.9782 428.38 67.8749 426.647 69.6087C424.855 71.2229 423.779 73.5545 423.301 76.5437H442.661Z" fill="black" style="fill:black;fill-opacity:1;"/>
<path d="M504.343 71.0435C502.909 70.4457 501.535 69.9674 500.28 69.6087C498.965 69.3098 497.71 69.1304 496.456 69.1304C492.632 69.1304 489.644 70.4457 487.612 72.9566C485.521 75.348 484.505 78.8753 484.505 83.4788V105.001H469.448V58.13H484.505V65.7825C486.417 62.7932 488.568 60.5214 490.958 59.0866C493.468 57.6517 496.515 56.9343 500.041 56.9343C500.519 56.9343 500.997 57.0539 501.475 57.1735C502.072 57.1735 502.969 57.293 504.104 57.4126L504.343 71.0435Z" fill="black" style="fill:black;fill-opacity:1;"/>
<path d="M542.232 42.586H560.158L582.864 85.3919V42.586H598.16V105.001H580.234L557.529 62.1954V105.001H542.232V42.586Z" fill="black" style="fill:black;fill-opacity:1;"/>
<path d="M660.069 81.5656V85.631H625.174C625.473 89.1583 626.728 91.7888 628.998 93.5226C631.209 95.3161 634.256 96.1531 638.081 96.1531C641.247 96.1531 644.414 95.7944 647.641 94.9574C650.987 94.0008 654.393 92.566 657.918 90.6529V102.132C654.393 103.566 650.868 104.643 647.402 105.24C643.877 105.838 640.291 106.197 636.646 106.197C628.162 106.197 621.589 104.045 616.809 99.7402C612.148 95.4357 609.877 89.3974 609.877 81.5656C609.877 73.9132 612.148 67.9347 616.809 63.6302C621.41 59.2061 627.803 56.9343 635.929 56.9343C643.219 56.9343 649.075 59.2061 653.377 63.6302C657.799 68.114 660.069 74.0925 660.069 81.5656ZM644.773 76.5437C644.773 73.674 643.877 71.4022 642.144 69.6087C640.53 67.8749 638.439 66.9781 635.929 66.9781C632.882 66.9781 630.492 67.8749 628.759 69.6087C626.967 71.2229 625.891 73.5544 625.413 76.5437H644.773Z" fill="black" style="fill:black;fill-opacity:1;"/>
<path d="M667.497 58.13H681.837L689.725 90.4138L697.612 58.13H710.279L717.928 90.1746L725.815 58.13H740.395L728.205 105.001H711.713L703.826 72.7175L696.178 105.001H679.686L667.497 58.13Z" fill="black" style="fill:black;fill-opacity:1;"/>
<path d="M787.264 59.5648V71.0435C784.038 69.6087 780.93 68.5923 777.943 67.9347C775.075 67.3368 772.266 66.9781 769.577 66.9781C766.709 66.9781 764.558 67.3966 763.124 68.1738C761.81 68.8315 761.212 69.8478 761.212 71.2826C761.212 72.5979 761.69 73.5544 762.646 74.1523C763.722 74.8099 765.634 75.2882 768.382 75.5871L771.012 75.8263C778.66 76.7828 783.739 78.397 786.308 80.6091C788.997 82.8809 790.371 86.3484 790.371 91.1312C790.371 96.2727 788.519 100.099 784.874 102.61C781.169 105.001 775.672 106.197 768.382 106.197C765.335 106.197 762.168 105.958 758.822 105.48C755.476 105.001 752.13 104.284 748.784 103.327V91.8486C751.652 93.2834 754.639 94.4193 757.866 95.1965C761.033 95.8542 764.2 96.1531 767.426 96.1531C770.295 96.1531 772.446 95.7944 773.88 94.9574C775.433 94.1802 776.27 92.9845 776.27 91.3703C776.27 90.1148 775.672 89.1583 774.597 88.5006C773.641 87.9028 771.609 87.3049 768.621 86.8267L765.992 86.5875C759.3 85.8103 754.58 84.3157 751.891 82.0439C749.321 79.8319 748.067 76.4241 748.067 71.7609C748.067 66.8586 749.74 63.1519 753.086 60.7605C756.432 58.2496 761.571 56.9343 768.621 56.9343C771.49 56.9343 774.417 57.1734 777.465 57.6517C780.452 58.13 783.739 58.7876 787.264 59.5648Z" fill="black" style="fill:black;fill-opacity:1;"/>
</g>
<defs>
<clipPath id="clip0_2_302">
<rect width="803" height="150" fill="white" style="fill:white;fill-opacity:1;"/>
</clipPath>
</defs>
</svg>
