<svg width="698" height="150" viewBox="0 0 698 150" fill="none" xmlns="http://www.w3.org/2000/svg">
<g clip-path="url(#clip0_2_339)">
<path d="M202.571 95.123C202.571 97.1067 202.151 98.8573 201.311 100.398C200.472 101.938 199.305 103.128 197.766 103.969C196.227 104.809 194.501 105.229 192.518 105.229H182.698V119.536H194.594C199.072 119.536 203.084 118.533 206.653 116.525C210.221 114.518 213.02 111.741 215.05 108.216C217.079 104.692 218.105 100.724 218.105 96.2899V49.2605H202.571V95.123ZM244.394 90.8517H276.93V77.7115H244.394V62.7975H280.359V49.2605H229.255V119.513H281.362V105.976H244.394V90.8517ZM286.239 63.1943H307.043V119.49H322.579V63.1943H343.29V49.2605H286.215V63.2177L286.239 63.1943ZM396.377 84.2932C395.166 83.6398 393.836 83.1497 392.459 82.7763C393.51 82.4728 394.513 82.0995 395.445 81.6326C398.012 80.3023 400.041 78.435 401.486 76.031C402.933 73.627 403.678 70.8731 403.678 67.7456C403.678 64.1745 402.699 60.9771 400.764 58.1529C398.827 55.3521 396.099 53.1584 392.599 51.5712C389.1 50.0074 385.09 49.2138 380.611 49.2138H349.424V119.466H381.218C385.928 119.466 390.128 118.649 393.836 116.992C397.52 115.335 400.39 113.048 402.444 110.084C404.472 107.143 405.498 103.782 405.498 100.001C405.498 96.5234 404.706 93.4191 403.095 90.6649C401.486 87.911 399.27 85.7871 396.401 84.27L396.377 84.2932ZM364.515 61.047H378.302C380.213 61.047 381.893 61.3971 383.364 62.074C384.832 62.7509 385.975 63.731 386.793 65.0147C387.608 66.2752 388.027 67.7688 388.027 69.4727C388.027 71.1764 387.608 72.7868 386.793 74.1173C385.975 75.4477 384.832 76.4512 383.364 77.1748C381.893 77.8983 380.213 78.2484 378.302 78.2484H364.515V61.0238V61.047ZM388.261 103.549C387.376 104.879 386.116 105.906 384.507 106.629C382.874 107.353 381.031 107.703 378.909 107.703H364.515V89.6848H378.909C380.984 89.6848 382.827 90.0816 384.46 90.8517C386.069 91.6219 387.353 92.6955 388.238 94.0959C389.123 95.4963 389.592 97.0835 389.592 98.8805C389.592 100.678 389.147 102.218 388.261 103.549ZM457.584 91.1086C461.479 89.2413 464.486 86.6039 466.634 83.2198C468.78 79.8354 469.852 75.9143 469.852 71.4333C469.852 66.952 468.803 63.1709 466.704 59.8102C464.603 56.4492 461.619 53.8584 457.771 52.0146C453.92 50.1708 449.465 49.2605 444.38 49.2605H413.64V119.513H429.197V93.9326H439.321L453.571 119.513H471.321L455.274 92.0421C456.068 91.762 456.86 91.4585 457.607 91.1086H457.584ZM452.545 76.7545C451.681 78.225 450.447 79.3688 448.837 80.1389C447.226 80.9325 445.338 81.3293 443.169 81.3293H429.174V61.8872H443.169C445.338 61.8872 447.226 62.284 448.837 63.0541C450.447 63.8245 451.681 64.968 452.545 66.4151C453.407 67.8621 453.852 69.5895 453.852 71.5498C453.852 73.5103 453.407 75.2374 452.545 76.7079V76.7545ZM500.782 49.2605L475.706 119.513H491.497L496.465 104.015H522.498L527.814 119.513H543.302L517.621 49.2605H500.782ZM499.988 92.2521L508.057 67.4655L509.015 62.9609L509.971 67.4655L518.602 92.2521H499.988ZM548.457 119.513H564.504V49.2605H548.457V119.513ZM621.115 96.78L590.909 49.2605H575.77V119.513H589.953V71.9934L619.995 119.513H635.297V49.2605H621.115V96.78ZM694.962 88.9146C693.447 85.9971 691.299 83.5465 688.57 81.5625C685.841 79.5787 682.693 78.2716 679.147 77.5948L667.206 75.1441C665.339 74.7007 663.847 73.9305 662.751 72.8102C661.652 71.6899 661.093 70.2895 661.093 68.6325C661.093 67.1154 661.491 65.8083 662.306 64.688C663.1 63.5677 664.243 62.7042 665.688 62.074C667.136 61.4437 668.815 61.1405 670.726 61.1405C672.64 61.1405 674.366 61.4672 675.835 62.1206C677.304 62.7741 678.447 63.6844 679.264 64.8748C680.082 66.0652 680.501 67.3955 680.501 68.9126H696.058C695.965 64.8281 694.821 61.2103 692.676 58.0828C690.53 54.9321 687.521 52.4815 683.696 50.7075C679.871 48.9338 675.486 48.0469 670.586 48.0469C665.688 48.0469 661.35 48.9572 657.549 50.801C653.747 52.6448 650.761 55.1888 648.639 58.4564C646.517 61.7238 645.444 65.4349 645.444 69.6127C645.444 72.997 646.118 76.0545 647.496 78.7617C648.871 81.4927 650.808 83.7565 653.302 85.5537C655.823 87.3509 658.715 88.6111 662.027 89.3114L674.669 91.9254C676.744 92.4155 678.379 93.3258 679.59 94.6327C680.803 95.9398 681.386 97.5502 681.386 99.5107C681.386 101.074 680.943 102.498 680.058 103.735C679.17 104.972 677.934 105.929 676.348 106.606C674.762 107.283 672.895 107.61 670.75 107.61C668.604 107.61 666.576 107.236 664.826 106.489C663.077 105.742 661.723 104.669 660.767 103.268C659.788 101.891 659.322 100.281 659.322 98.4839H643.764C643.832 102.872 644.999 106.723 647.308 110.084C649.594 113.421 652.742 116.035 656.755 117.902C660.767 119.77 665.363 120.703 670.541 120.703C675.718 120.703 680.384 119.746 684.396 117.832C688.432 115.919 691.556 113.281 693.819 109.92C696.082 106.559 697.201 102.755 697.201 98.5071C697.201 95.0295 696.431 91.8321 694.915 88.8912L694.962 88.9146Z" fill="black" style="fill:black;fill-opacity:1;"/>
<path d="M47.642 8.57813L8.57275 47.6719C3.09181 53.1563 0 60.6094 0 68.3906V138.281C0 144.75 5.24671 150 11.7114 150H81.5583C89.3346 150 96.7597 146.906 102.264 141.422L141.333 102.328C146.814 96.8437 149.906 89.3906 149.906 81.6094V11.7188C149.906 5.25 144.659 0 138.195 0H68.3478C60.5714 0 53.1464 3.09375 47.642 8.57813Z" fill="url(#paint0_linear_2_339)"/>
<path d="M112.43 37.5H18.7383V131.25H112.43V37.5Z" fill="black" style="fill:black;fill-opacity:1;"/>
<path d="M70.2685 110.156H30.4497V119.531H70.2685V110.156Z" fill="white" style="fill:white;fill-opacity:1;"/>
</g>
<defs>
<linearGradient id="paint0_linear_2_339" x1="1.99094" y1="147" x2="146.763" y2="4.3329" gradientUnits="userSpaceOnUse">
<stop stop-color="#FF9419" style="stop-color:#FF9419;stop-color:color(display-p3 1.0000 0.5804 0.0980);stop-opacity:1;"/>
<stop offset="0.43" stop-color="#FF021D" style="stop-color:#FF021D;stop-color:color(display-p3 1.0000 0.0078 0.1137);stop-opacity:1;"/>
<stop offset="0.99" stop-color="#E600FF" style="stop-color:#E600FF;stop-color:color(display-p3 0.9020 0.0000 1.0000);stop-opacity:1;"/>
</linearGradient>
<clipPath id="clip0_2_339">
<rect width="698" height="150" fill="white" style="fill:white;fill-opacity:1;"/>
</clipPath>
</defs>
</svg>
