<svg width="589" height="150" viewBox="0 0 589 150" fill="none" xmlns="http://www.w3.org/2000/svg">
<path d="M137.769 33.1804C135.652 17.2458 121.934 4.66689 105.694 2.24702C102.946 1.83609 92.5618 0.329361 68.5053 0.329361H68.325C44.2462 0.329361 39.0879 1.83609 36.3399 2.24702C20.5275 4.62126 6.11168 15.8989 2.59782 32.0391C0.930981 39.9836 0.750782 48.7957 1.06613 56.8772C1.51663 68.4746 1.60673 80.0259 2.64286 91.5776C3.36366 99.2484 4.60253 106.85 6.38198 114.338C9.71565 128.173 23.1855 139.679 36.3851 144.359C50.508 149.244 65.7124 150.066 80.2632 146.71C81.8625 146.322 83.4393 145.888 85.0161 145.386C88.5525 144.244 92.6969 142.966 95.7602 140.729C95.8054 140.706 95.828 140.66 95.8505 140.615C95.873 140.569 95.8955 140.523 95.8955 140.455V129.269C95.8955 129.269 95.8955 129.177 95.8505 129.132C95.8505 129.086 95.8054 129.04 95.7602 129.017C95.7152 128.995 95.6702 128.972 95.6254 128.949C95.58 128.949 95.5351 128.949 95.4901 128.949C86.1646 131.209 76.5918 132.351 67.0187 132.328C50.508 132.328 46.0706 124.383 44.8093 121.096C43.7956 118.242 43.1425 115.252 42.8722 112.238C42.8722 112.192 42.8722 112.147 42.8947 112.101C42.8947 112.055 42.9397 112.01 42.9849 111.987C43.0297 111.964 43.0747 111.941 43.1198 111.919H43.2775C52.4451 114.156 61.8605 115.297 71.2984 115.297C73.5735 115.297 75.8258 115.297 78.1009 115.229C87.5838 114.955 97.585 114.475 106.933 112.626C107.158 112.58 107.406 112.535 107.608 112.489C122.34 109.613 136.35 100.618 137.769 77.8344C137.814 76.9442 137.949 68.4289 137.949 67.5157C137.949 64.3423 138.963 45.0746 137.792 33.2263L137.769 33.1804Z" fill="url(#paint0_linear_2_344)"/>
<path d="M28.7268 42.0847C28.7268 37.4274 32.3983 33.6836 36.9482 33.6836C41.4984 33.6836 45.1697 37.4503 45.1697 42.0847C45.1697 46.719 41.4984 50.4857 36.9482 50.4857C32.3983 50.4857 28.7268 46.719 28.7268 42.0847Z" fill="white" style="fill:white;fill-opacity:1;"/>
<path d="M151.037 49.3215V87.9484H136.058V50.463C136.058 42.564 132.814 38.5687 126.304 38.5687C119.119 38.5687 115.493 43.3402 115.493 52.7229V73.2463H100.626V52.7229C100.626 43.2945 97.0448 38.5687 89.8144 38.5687C83.3273 38.5687 80.061 42.564 80.061 50.463V87.9257H65.1047V49.3215C65.1047 41.4454 67.0644 35.1673 71.0062 30.5102C75.0832 25.8531 80.4215 23.5016 87.0212 23.5016C94.6797 23.5016 100.491 26.5149 104.32 32.5419L108.06 38.9342L111.799 32.5419C115.628 26.538 121.417 23.5016 129.098 23.5016C135.697 23.5016 141.036 25.8759 145.113 30.5102C149.055 35.1673 151.014 41.3996 151.014 49.3215H151.037ZM202.573 68.5207C205.681 65.1649 207.146 61.0099 207.146 55.9419C207.146 50.8738 205.659 46.6732 202.573 43.4773C199.6 40.1212 195.816 38.5232 191.243 38.5232C186.671 38.5232 182.909 40.1212 179.914 43.4773C176.94 46.6732 175.454 50.8738 175.454 55.9419C175.454 61.0099 176.94 65.2104 179.914 68.5207C182.887 71.7167 186.671 73.3378 191.243 73.3378C195.816 73.3378 199.577 71.7397 202.573 68.5207ZM207.146 25.0541H221.899V86.8299H207.146V79.5474C202.685 85.5969 196.514 88.5877 188.495 88.5877C180.477 88.5877 174.305 85.5056 168.831 79.2049C163.448 72.9041 160.722 65.1191 160.722 55.9875C160.722 46.8559 163.47 39.1852 168.831 32.8843C174.327 26.5836 180.86 23.3876 188.495 23.3876C196.131 23.3876 202.685 26.3554 207.146 32.3822V25.0997V25.0541ZM271.544 54.7777C275.892 58.1334 278.055 62.8136 277.942 68.7262C277.942 75.027 275.78 79.9811 271.319 83.4054C266.86 86.7613 261.475 88.4734 254.943 88.4734C243.163 88.4734 235.167 83.5196 230.931 73.7944L243.728 66.0096C245.437 71.3059 249.201 74.0454 254.943 74.0454C260.214 74.0454 262.827 72.3334 262.827 68.7489C262.827 66.1466 259.402 63.7952 252.42 61.9687C249.785 61.2382 247.601 60.4849 245.911 59.8686C243.501 58.887 241.451 57.7682 239.738 56.3985C235.504 53.0426 233.343 48.6137 233.343 42.9292C233.343 36.8796 235.392 32.0625 239.515 28.5926C243.75 25.0084 248.907 23.2961 255.078 23.2961C264.921 23.2961 272.107 27.6109 276.815 36.3772L264.247 43.7737C262.422 39.5734 259.312 37.473 255.078 37.473C250.618 37.473 248.457 39.1852 248.457 42.5411C248.457 45.1438 251.88 47.4952 258.864 49.3215C264.247 50.5543 268.481 52.4034 271.544 54.7777ZM318.443 40.3496H305.511V66.0553C305.511 69.1371 306.661 71.0091 308.846 71.8539C310.444 72.4702 313.644 72.5842 318.465 72.3561V86.8071C308.531 88.0397 301.322 87.0352 297.089 83.7249C292.853 80.5288 290.803 74.5706 290.803 66.078V40.3496H280.869V25.0311H290.803V12.5664L305.556 7.74947V25.0541H318.488V40.3725H318.465L318.443 40.3496ZM365.473 68.1555C368.448 64.9596 369.931 60.873 369.931 55.9192C369.931 50.9651 368.448 46.9245 365.473 43.6826C362.477 40.4865 358.827 38.8656 354.368 38.8656C349.907 38.8656 346.259 40.4638 343.263 43.6826C340.403 47.0385 338.915 51.0793 338.915 55.9192C338.915 60.7588 340.403 64.7996 343.263 68.1555C346.236 71.3516 349.907 72.9724 354.368 72.9724C358.827 72.9724 362.477 71.3745 365.473 68.1555ZM332.881 79.1362C327.045 72.8355 324.186 65.1877 324.186 55.9192C324.186 46.6504 327.045 39.1168 332.881 32.8161C338.714 26.5149 345.921 23.319 354.368 23.319C362.815 23.319 370.046 26.5149 375.857 32.8161C381.668 39.1168 384.664 46.9014 384.664 55.9192C384.664 64.9365 381.668 72.8355 375.857 79.1362C370.021 85.4374 362.929 88.5191 354.368 88.5191C345.809 88.5191 338.692 85.4374 332.881 79.1362ZM433.992 68.4981C436.967 65.1422 438.452 60.9872 438.452 55.9192C438.452 50.8511 436.967 46.6504 433.992 43.4542C431.02 40.0984 427.237 38.5005 422.664 38.5005C418.092 38.5005 414.305 40.0984 411.221 43.4542C408.248 46.6504 406.761 50.8511 406.761 55.9192C406.761 60.9872 408.248 65.1877 411.221 68.4981C414.328 71.694 418.205 73.3149 422.664 73.3149C427.124 73.3149 430.998 71.7169 433.992 68.4981ZM438.452 0.307159H453.205V86.8071H438.452V79.5244C434.106 85.5742 427.935 88.5647 419.916 88.5647C411.897 88.5647 405.635 85.4829 400.115 79.182C394.731 72.8811 392.008 65.0964 392.008 55.9648C392.008 46.8332 394.754 39.1626 400.115 32.8616C405.588 26.5607 412.234 23.3646 419.916 23.3646C427.597 23.3646 434.106 26.3325 438.452 32.3593V0.329989V0.307159ZM505.036 68.0869C508.009 64.8909 509.496 60.8046 509.496 55.8506C509.496 50.8967 508.009 46.8559 505.036 43.6142C502.064 40.4181 498.414 38.7973 493.931 38.7973C489.45 38.7973 485.824 40.3952 482.828 43.6142C479.966 46.9701 478.478 51.0107 478.478 55.8506C478.478 60.6904 479.966 64.731 482.828 68.0869C485.801 71.2832 489.472 72.9041 493.931 72.9041C498.391 72.9041 502.042 71.3059 505.036 68.0869ZM472.444 79.068C466.632 72.7669 463.747 65.1191 463.747 55.8506C463.747 46.5819 466.61 39.0482 472.444 32.7474C478.275 26.4467 485.484 23.2504 493.931 23.2504C502.379 23.2504 509.609 26.4467 515.42 32.7474C521.254 39.0482 524.227 46.8332 524.227 55.8506C524.227 64.8682 521.254 72.7669 515.42 79.068C509.586 85.3687 502.492 88.4507 493.931 88.4507C485.372 88.4507 478.253 85.3687 472.444 79.068ZM588.062 48.7965V86.7384H573.309V50.7825C573.309 46.6959 572.294 43.6142 570.201 41.2856C568.263 39.1852 565.515 38.0895 561.977 38.0895C553.645 38.0895 549.409 43.1574 549.409 53.4079V86.7613H534.656V25.0311H549.409V31.9712C552.945 26.1726 558.576 23.319 566.44 23.319C572.722 23.319 577.88 25.5336 581.893 30.0992C586.014 34.6652 588.062 40.8519 588.062 48.8647" fill="black" style="fill:black;fill-opacity:1;"/>
<defs>
<linearGradient id="paint0_linear_2_344" x1="69.6315" y1="0.329361" x2="69.6315" y2="148.719" gradientUnits="userSpaceOnUse">
<stop stop-color="#6364FF" style="stop-color:#6364FF;stop-color:color(display-p3 0.3882 0.3922 1.0000);stop-opacity:1;"/>
<stop offset="1" stop-color="#563ACC" style="stop-color:#563ACC;stop-color:color(display-p3 0.3373 0.2275 0.8000);stop-opacity:1;"/>
</linearGradient>
</defs>
</svg>
