<svg width="682" height="150" viewBox="0 0 682 150" fill="none" xmlns="http://www.w3.org/2000/svg">
<path d="M165.156 9.35345L165.36 9.30866V7.72909H123.688L84.9951 98.6468L46.302 7.72909H1.39602V9.30866L1.59757 9.35345C9.20385 11.0698 13.0654 13.6294 13.0654 22.8604V130.929C13.0654 140.16 9.18891 142.72 1.58263 144.436L1.3811 144.481V146.065H31.8484V144.485L31.6468 144.441C24.0406 142.724 20.179 140.165 20.179 130.934V29.1289L69.8847 146.065H72.7034L123.857 25.8678V133.603C123.205 140.894 119.379 143.145 112.492 144.7L112.287 144.747V146.314H165.36V144.747L165.156 144.7C158.261 143.145 154.342 140.894 153.69 133.603L153.655 22.8604H153.69C153.69 13.6294 157.552 11.0698 165.156 9.35345ZM189.398 80.9434C190.266 61.5258 197.24 47.5113 208.944 47.2701C212.555 47.3298 215.583 48.5138 217.937 50.7923C222.938 55.6454 225.289 65.7869 224.926 80.9434H189.398ZM188.873 86.4157H251.076V86.1545C250.9 71.3066 246.598 59.7572 238.302 51.8271C231.131 44.9742 220.515 41.2031 209.363 41.2031H209.114C203.326 41.2031 196.228 42.6061 191.176 45.1482C185.426 47.8098 180.356 51.7898 176.135 57.0136C169.343 65.4287 165.228 76.8014 164.228 89.582C164.195 89.9652 164.168 90.3484 164.14 90.7316C164.113 91.1141 164.095 91.4577 164.078 91.8232C164.044 92.5077 164.016 93.1936 164.001 93.883C163.976 94.9875 163.969 96.0995 163.988 97.2184C164.663 126.166 180.303 149.299 208.084 149.299C232.467 149.299 246.667 131.478 250.208 107.559L248.419 106.93C242.199 119.785 231.027 127.576 218.312 126.626C200.955 125.327 187.659 107.733 188.865 86.4205M321.406 125.643C319.366 130.482 315.109 133.143 309.403 133.143C303.698 133.143 298.483 129.228 294.778 122.114C290.797 114.477 288.702 103.681 288.702 90.8932C288.702 64.277 296.982 47.0611 309.799 47.0611C315.166 47.0611 319.391 49.7227 321.406 54.3669V125.643ZM362.669 144.618C355.063 142.819 351.202 140.14 351.202 130.439V1.36363L304.989 14.9751V16.6417L305.273 16.6193C311.648 16.1044 315.972 16.985 318.483 19.3034C320.448 21.1192 321.406 23.9052 321.406 27.8255V45.5214C316.851 42.6135 311.431 41.1981 304.855 41.1981C291.518 41.1981 279.329 46.8124 270.539 57.0086C261.375 67.6351 256.53 82.157 256.53 99C256.528 129.081 271.339 149.299 293.384 149.299C306.281 149.299 316.656 142.235 321.406 130.319V146.314H362.871V144.657L362.669 144.618ZM402.303 18.9178C402.303 9.52506 395.219 2.44071 385.822 2.44071C376.469 2.44071 369.151 9.67929 369.151 18.9178C369.151 28.1563 376.476 35.3948 385.822 35.3948C395.219 35.3948 402.303 28.3105 402.303 18.9178ZM413.211 144.618C405.605 142.819 401.743 140.14 401.743 130.439H401.711V41.5041L360.243 53.4067V55.0235L360.492 55.0459C369.465 55.8444 371.921 58.9338 371.921 69.4159V146.314H413.422V144.657L413.211 144.618ZM519.467 144.618C511.861 142.819 507.999 140.14 507.999 130.439V41.5041L468.518 53.0137V54.6355L468.752 54.6604C476.087 55.4315 478.206 58.6976 478.206 69.227V125.444C475.761 130.282 471.172 133.155 465.614 133.349C456.599 133.349 451.636 127.263 451.636 116.21V41.5066L410.168 53.4092V55.0235L410.417 55.0459C419.389 55.8419 421.847 58.9314 421.847 69.4159V116.994C421.826 120.316 422.115 123.631 422.711 126.899L423.457 130.145C426.968 142.722 436.166 149.299 450.578 149.299C462.785 149.299 473.484 141.745 478.196 129.924V146.341H519.664V144.685L519.467 144.618ZM680.557 146.314V144.655L680.355 144.607C672.102 142.705 668.888 139.117 668.888 131.815V71.3189C668.888 52.4565 658.29 41.1981 640.54 41.1981C627.602 41.1981 616.691 48.673 612.491 60.3169C609.155 47.979 599.553 41.1981 585.356 41.1981C572.885 41.1981 563.112 47.7775 558.919 58.8916V41.5115L517.452 52.9266V54.5534L517.701 54.5758C526.566 55.3619 529.129 58.5408 529.129 68.7545V146.314H567.819V144.657L567.615 144.607C561.032 143.06 558.907 140.24 558.907 133.001V63.6601C560.648 59.593 564.159 54.7748 571.099 54.7748C579.718 54.7748 584.087 60.7447 584.087 72.5052V146.314H622.788V144.657L622.584 144.607C616 143.06 613.875 140.24 613.875 133.001V71.3114C613.892 69.0048 613.709 66.7012 613.328 64.4262C615.174 60.006 618.886 54.7748 626.109 54.7748C634.85 54.7748 639.097 60.5731 639.097 72.5052V146.314H680.557Z" fill="black" style="fill:black;fill-opacity:1;"/>
</svg>
