<svg width="447" height="150" viewBox="0 0 447 150" fill="none" xmlns="http://www.w3.org/2000/svg">
<path d="M404.053 54.9992C409.293 54.9992 413.54 50.7516 413.54 45.5118C413.54 40.2721 409.293 36.0244 404.053 36.0244C398.813 36.0244 394.565 40.2721 394.565 45.5118C394.565 50.7516 398.813 54.9992 404.053 54.9992Z" fill="#FF4500" style="fill:#FF4500;fill:color(display-p3 1.0000 0.2706 0.0000);fill-opacity:1;"/>
<path d="M268.55 85.9655C273.204 85.9655 275.889 82.4755 275.71 79.0739C275.622 77.2838 275.442 76.1194 275.263 75.2252C272.399 62.8751 262.376 53.7447 250.471 53.7447C236.331 53.7447 224.875 66.5436 224.875 82.2953C224.875 98.047 236.331 110.846 250.471 110.846C259.333 110.846 265.687 107.624 270.252 102.523C272.489 100.017 272.042 96.1686 269.356 94.2884C267.119 92.767 264.344 93.3041 262.286 95.0041C260.317 96.7057 256.558 100.106 250.471 100.106C243.313 100.106 237.227 93.9297 235.884 85.7853H268.55V85.9655ZM250.383 64.575C256.825 64.575 262.376 69.5865 264.434 76.4781H236.331C238.389 69.4981 243.938 64.575 250.383 64.575ZM225.412 59.3834C225.412 56.6992 223.444 54.5505 220.938 54.1034C213.15 52.9406 205.812 55.8033 201.606 61.085V60.3677C201.606 57.0562 198.92 54.9992 196.236 54.9992C193.281 54.9992 190.866 57.4149 190.866 60.3677V104.223C190.866 107.087 193.013 109.593 195.877 109.772C199.01 109.95 201.606 107.534 201.606 104.401V81.7581C201.606 71.7352 209.123 63.5007 219.505 64.6651H220.579C223.263 64.4849 225.412 62.1577 225.412 59.3834ZM409.421 65.1122C409.421 62.1577 407.006 59.7421 404.053 59.7421C401.098 59.7421 398.683 62.1577 398.683 65.1122V104.401C398.683 107.356 401.098 109.772 404.053 109.772C407.006 109.772 409.421 107.356 409.421 104.401V65.1122ZM329.588 35.3988C329.588 32.4443 327.173 30.0287 324.218 30.0287C321.265 30.0287 318.85 32.4443 318.85 35.3988V59.295C315.179 55.6248 310.615 53.8348 305.155 53.8348C291.015 53.8348 279.559 66.6337 279.559 82.3854C279.559 98.1371 291.015 110.936 305.155 110.936C310.615 110.936 315.27 109.056 318.938 105.386C319.385 107.893 321.624 109.772 324.218 109.772C327.173 109.772 329.588 107.356 329.588 104.401V35.3988ZM305.245 100.284C297.01 100.284 290.387 92.3199 290.387 82.3854C290.387 72.541 297.01 64.4849 305.245 64.4849C313.48 64.4849 320.103 72.4509 320.103 82.3854C320.103 92.3199 313.389 100.284 305.245 100.284ZM385.615 35.3988C385.615 32.4443 383.199 30.0287 380.245 30.0287C377.292 30.0287 374.875 32.4443 374.875 35.3988V59.295C371.206 55.6248 366.642 53.8348 361.182 53.8348C347.042 53.8348 335.586 66.6337 335.586 82.3854C335.586 98.1371 347.042 110.936 361.182 110.936C366.642 110.936 371.295 109.056 374.965 105.386C375.412 107.893 377.649 109.772 380.245 109.772C383.199 109.772 385.615 107.356 385.615 104.401V35.3988ZM361.182 100.284C352.947 100.284 346.326 92.3199 346.326 82.3854C346.326 72.541 352.947 64.4849 361.182 64.4849C369.416 64.4849 376.039 72.4509 376.039 82.3854C376.039 92.3199 369.416 100.284 361.182 100.284ZM436.629 104.491V64.575H441.373C443.879 64.575 446.116 62.6949 446.295 60.0991C446.475 57.3248 444.238 54.9992 441.552 54.9992H436.629V47.4804C436.629 44.616 434.482 42.1102 431.617 41.9317C428.484 41.7532 425.89 44.1689 425.89 47.3019V55.0876H421.414C418.909 55.0876 416.671 56.9678 416.493 59.5636C416.313 62.3379 418.552 64.6651 421.236 64.6651H425.8V104.582C425.8 107.534 428.218 109.95 431.17 109.95C434.303 109.772 436.629 107.444 436.629 104.491Z" fill="#222222" style="fill:#222222;fill:color(display-p3 0.1333 0.1333 0.1333);fill-opacity:1;"/>
<path d="M75 150C116.421 150 150 116.421 150 75C150 33.5786 116.421 0 75 0C33.5786 0 0 33.5786 0 75C0 116.421 33.5786 150 75 150Z" fill="#FF4500" style="fill:#FF4500;fill:color(display-p3 1.0000 0.2706 0.0000);fill-opacity:1;"/>
<path d="M125.029 75C125.029 68.9142 120.108 64.0812 114.111 64.0812C111.158 64.0812 108.472 65.244 106.503 67.1241C98.9861 61.754 88.693 58.264 77.237 57.8169L82.2485 34.3678L98.5374 37.8578C98.7175 41.9751 102.117 45.2866 106.325 45.2866C110.621 45.2866 114.111 41.7966 114.111 37.4992C114.111 33.2034 110.621 29.7134 106.325 29.7134C103.282 29.7134 100.596 31.5034 99.3431 34.0993L81.1758 30.2506C80.6386 30.1605 80.1014 30.2506 79.7427 30.5192C79.2957 30.7878 79.0271 31.2348 78.9386 31.772L73.3883 57.9053C61.7539 58.264 51.2822 61.754 43.675 67.2142C41.6262 65.2574 38.9009 64.1672 36.0677 64.1713C29.9819 64.1713 25.1489 69.0927 25.1489 75.0901C25.1489 79.5644 27.8332 83.3229 31.5934 85.0246C31.4132 86.0973 31.3248 87.1716 31.3248 88.3361C31.3248 105.16 50.9252 118.855 75.09 118.855C99.2547 118.855 118.855 105.251 118.855 88.3361C118.855 87.2617 118.765 86.0973 118.587 85.0246C122.345 83.3229 125.029 79.4743 125.029 75ZM50.0294 82.7858C50.0294 78.49 53.5194 75 57.8168 75C62.1126 75 65.6026 78.49 65.6026 82.7858C65.6026 87.0815 62.1126 90.5732 57.8168 90.5732C53.5194 90.6616 50.0294 87.0815 50.0294 82.7858ZM93.616 103.461C88.2459 108.831 78.0428 109.189 75.09 109.189C72.0471 109.189 61.844 108.741 56.5623 103.461C55.7582 102.655 55.7582 101.402 56.5623 100.596C57.368 99.792 58.6209 99.792 59.4267 100.596C62.8283 103.998 69.9884 105.16 75.09 105.16C80.1915 105.16 87.4401 103.998 90.7516 100.596C91.5574 99.792 92.8102 99.792 93.616 100.596C94.3317 101.402 94.3317 102.655 93.616 103.461ZM92.183 90.6616C87.8872 90.6616 84.3972 87.1716 84.3972 82.8759C84.3972 78.5801 87.8872 75.0901 92.183 75.0901C96.4804 75.0901 99.9704 78.5801 99.9704 82.8759C99.9704 87.0815 96.4804 90.6616 92.183 90.6616Z" fill="white" style="fill:white;fill-opacity:1;"/>
</svg>
