<svg width="672" height="150" viewBox="0 0 672 150" fill="none" xmlns="http://www.w3.org/2000/svg">
<path d="M209.824 23.4706C207.353 14.2941 200.118 7.05882 190.941 4.58824C174.176 0 107.118 0 107.118 0C107.118 0 40.0588 0 23.2941 4.41176C14.2941 6.88235 6.88235 14.2941 4.41176 23.4706C0 40.2353 0 75 0 75C0 75 0 109.941 4.41176 126.529C6.88235 135.706 14.1176 142.941 23.2941 145.412C40.2353 150 107.118 150 107.118 150C107.118 150 174.176 150 190.941 145.588C200.118 143.118 207.353 135.882 209.824 126.706C214.235 109.941 214.235 75.1765 214.235 75.1765C214.235 75.1765 214.412 40.2353 209.824 23.4706Z" fill="#FF0000" style="fill:#FF0000;fill:color(display-p3 1.0000 0.0000 0.0000);fill-opacity:1;"/>
<path d="M85.7646 42.8824V107.118L141.529 75L85.7646 42.8824Z" fill="white" style="fill:white;fill-opacity:1;"/>
<path d="M301.766 138.176C297.531 135.353 294.531 130.941 292.766 124.765C291.001 118.765 290.119 110.647 290.119 100.765V87.1765C290.119 77.1177 291.178 69 293.119 62.8235C295.237 56.6471 298.413 52.2353 302.649 49.4118C307.06 46.5882 312.707 45.1765 319.766 45.1765C326.649 45.1765 332.296 46.5882 336.531 49.4118C340.766 52.2353 343.766 56.8235 345.707 62.8235C347.649 68.8235 348.707 76.9412 348.707 87.1765V100.765C348.707 110.824 347.825 118.765 345.884 124.941C343.943 130.941 340.943 135.529 336.707 138.353C332.472 141.176 326.649 142.588 319.413 142.588C312.002 142.412 306.002 141 301.766 138.176ZM325.59 123.353C326.825 120.353 327.354 115.235 327.354 108.353V79.0588C327.354 72.353 326.825 67.4118 325.59 64.2353C324.354 61.0588 322.413 59.6471 319.413 59.6471C316.59 59.6471 314.472 61.2353 313.413 64.2353C312.178 67.4118 311.649 72.353 311.649 79.0588V108.353C311.649 115.235 312.178 120.353 313.413 123.353C314.472 126.353 316.59 127.941 319.59 127.941C322.413 127.941 324.354 126.529 325.59 123.353Z" fill="#282828" style="fill:#282828;fill:color(display-p3 0.1569 0.1569 0.1569);fill-opacity:1;"/>
<path d="M627.53 100.941V105.706C627.53 111.706 627.707 116.294 628.06 119.294C628.413 122.294 629.118 124.588 630.354 125.824C631.413 127.235 633.177 127.941 635.648 127.941C638.824 127.941 640.942 126.706 642.177 124.235C643.413 121.765 643.942 117.706 644.118 111.882L662.295 112.941C662.471 113.824 662.471 114.882 662.471 116.294C662.471 124.941 660.177 131.471 655.413 135.706C650.648 139.941 643.942 142.059 635.295 142.059C624.883 142.059 617.648 138.706 613.413 132.176C609.177 125.647 607.06 115.588 607.06 101.824V85.4118C607.06 71.2941 609.177 61.0588 613.589 54.5294C618.001 48 625.413 44.8235 635.824 44.8235C643.06 44.8235 648.707 46.2353 652.589 48.8823C656.471 51.5294 659.118 55.7647 660.707 61.2353C662.295 66.8823 663.001 74.647 663.001 84.5294V100.588H627.53V100.941ZM630.177 61.4118C629.118 62.8235 628.413 64.9412 628.06 67.9412C627.707 70.9412 627.53 75.5294 627.53 81.7059V88.4118H643.06V81.7059C643.06 75.7059 642.883 71.1176 642.53 67.9412C642.177 64.7647 641.295 62.647 640.236 61.4118C639.177 60.1765 637.413 59.4706 635.295 59.4706C632.824 59.2941 631.236 60 630.177 61.4118Z" fill="#282828" style="fill:#282828;fill:color(display-p3 0.1569 0.1569 0.1569);fill-opacity:1;"/>
<path d="M250.236 99.1765L226.236 12.1765H247.236L255.707 51.5294C257.825 61.2353 259.413 69.5294 260.472 76.4117H261.001C261.707 71.4706 263.295 63.3529 265.766 51.7059L274.589 12.1765H295.589L271.236 99.1765V140.824H250.413V99.1765H250.236Z" fill="#282828" style="fill:#282828;fill:color(display-p3 0.1569 0.1569 0.1569);fill-opacity:1;"/>
<path d="M417.001 46.9412V141H400.413L398.648 129.529H398.119C393.707 138.176 386.825 142.588 377.825 142.588C371.648 142.588 367.06 140.471 364.06 136.412C361.06 132.353 359.648 126 359.648 117.176V46.9412H380.825V115.941C380.825 120.176 381.354 123.176 382.237 124.941C383.119 126.706 384.707 127.588 386.825 127.588C388.59 127.588 390.354 127.059 392.119 125.824C393.884 124.765 395.119 123.353 395.825 121.588V46.9412H417.001Z" fill="#282828" style="fill:#282828;fill:color(display-p3 0.1569 0.1569 0.1569);fill-opacity:1;"/>
<path d="M525.531 46.9412V141H508.942L507.178 129.529H506.648C502.237 138.176 495.354 142.588 486.354 142.588C480.178 142.588 475.589 140.471 472.589 136.412C469.589 132.353 468.178 126 468.178 117.176V46.9412H489.354V115.941C489.354 120.176 489.884 123.176 490.766 124.941C491.648 126.706 493.237 127.588 495.354 127.588C497.119 127.588 498.884 127.059 500.648 125.824C502.413 124.765 503.648 123.353 504.354 121.588V46.9412H525.531Z" fill="#282828" style="fill:#282828;fill:color(display-p3 0.1569 0.1569 0.1569);fill-opacity:1;"/>
<path d="M474.531 29.2941H453.531V140.824H432.884V29.2941H411.884V12.1765H474.531V29.2941Z" fill="#282828" style="fill:#282828;fill:color(display-p3 0.1569 0.1569 0.1569);fill-opacity:1;"/>
<path d="M595.589 61.9412C594.354 55.9412 592.236 51.7059 589.413 49.0588C586.589 46.4118 582.53 45 577.589 45C573.707 45 570.001 46.0588 566.648 48.3529C563.295 50.4706 560.648 53.4706 558.883 57H558.707V7.41176H538.236V140.824H555.707L557.825 132H558.354C559.942 135.176 562.413 137.647 565.766 139.588C569.119 141.353 572.648 142.412 576.707 142.412C583.942 142.412 589.06 139.059 592.413 132.529C595.766 126 597.53 115.588 597.53 101.647V86.8235C597.354 76.0588 596.825 67.7647 595.589 61.9412ZM576.178 100.235C576.178 107.118 575.825 112.412 575.295 116.294C574.766 120.176 573.707 123 572.472 124.588C571.06 126.176 569.295 127.059 567.178 127.059C565.413 127.059 563.825 126.706 562.413 125.824C561.001 124.941 559.766 123.706 558.883 122.118V68.8235C559.589 66.3529 560.825 64.2353 562.589 62.4706C564.354 60.8823 566.295 60 568.236 60C570.354 60 572.119 60.8823 573.178 62.4706C574.413 64.2353 575.119 67.0588 575.648 70.9412C576.178 75 576.354 80.6471 576.354 87.8824V100.235H576.178Z" fill="#282828" style="fill:#282828;fill:color(display-p3 0.1569 0.1569 0.1569);fill-opacity:1;"/>
</svg>
